<svg width="24" height="24" viewBox="0 0 24 24" fill="none" xmlns="http://www.w3.org/2000/svg">
<path d="M12.019 13.5603L7.02245 18.5592C6.80072 18.781 6.53611 18.8915 6.22863 18.8907C5.92114 18.8899 5.65853 18.7731 5.44078 18.5402C5.22061 18.3185 5.11369 18.0612 5.12003 17.7684C5.12636 17.4756 5.23961 17.2128 5.45978 16.9799L10.4373 12L5.44078 6.97608C5.22061 6.75434 5.11053 6.49707 5.11053 6.20425C5.11053 5.91145 5.22061 5.64862 5.44078 5.41577C5.65853 5.19402 5.92114 5.08276 6.22863 5.08197C6.53611 5.08119 6.80072 5.19167 7.02245 5.4134L12.019 10.4123L16.9776 5.4134C17.1993 5.19167 17.4639 5.08119 17.7714 5.08197C18.0789 5.08276 18.3415 5.19402 18.5592 5.41577C18.7794 5.64862 18.8863 5.91145 18.88 6.20425C18.8736 6.49707 18.7659 6.75434 18.5569 6.97608L13.5793 12L18.5569 16.9799C18.7659 17.2001 18.8736 17.4597 18.88 17.7589C18.8863 18.058 18.7794 18.3185 18.5592 18.5402C18.3415 18.7731 18.0789 18.8899 17.7714 18.8907C17.4639 18.8915 17.1993 18.781 16.9776 18.5592L12.019 13.5603Z" fill="url(#paint0_linear_6_2)"/>
<defs>
<linearGradient id="paint0_linear_6_2" x1="8" y1="11" x2="19" y2="11.5" gradientUnits="userSpaceOnUse">
<stop stop-color="#F05941"/>
<stop offset="1" stop-color="#F4AC2E"/>
</linearGradient>
</defs>
</svg>
